<?xml version="1.0" encoding="utf-8"?>
<!-- Generator: Adobe Illustrator 17.1.0, SVG Export Plug-In . SVG Version: 6.00 Build 0)  -->
<!DOCTYPE svg PUBLIC "-//W3C//DTD SVG 1.1//EN" "http://www.w3.org/Graphics/SVG/1.1/DTD/svg11.dtd">
<svg version="1.1" id="heart-giftbox" xmlns="http://www.w3.org/2000/svg" xmlns:xlink="http://www.w3.org/1999/xlink" x="0px"
	 y="0px" viewBox="0 0 56.9218 48.8516" enable-background="new 0 0 56.9218 48.8516" xml:space="preserve">
<g>
	<g>
		<path fill="#FFA8A6" d="M28.4609,14.7266C28.4609,7.1455,34.6015,1,42.1914,1c7.58,0,13.7304,6.1455,13.7304,13.7266
			c0,3.9785-1.7187,7.5234-4.414,10.0351l0.0371,0.0049l-23.084,23.085L5.3691,24.7666c0.0088-0.0049,0.0156-0.0049,0.0234-0.0166
			C2.7011,22.2422,1,18.7051,1,14.7266C1,7.1455,7.1425,1,14.7334,1C22.3105,1,28.4609,7.1455,28.4609,14.7266z"/>
		<path fill="#FFFFFF" d="M53.08,6.4336c0-0.0117,0.0079-0.0224,0.0079-0.0342c0.2285,0.2998,0.4492,0.6055,0.6523,0.9229
			C53.3613,7.2002,53.08,6.8555,53.08,6.4336z M54.0273,13.0625c0.5234,0,0.9473-0.4238,0.9473-0.9472
			c0-0.5235-0.4239-0.9473-0.9473-0.9473c-0.5215,0-0.9473,0.4238-0.9473,0.9473C53.08,12.6387,53.5058,13.0625,54.0273,13.0625z
			 M54.0273,15.9033c-0.5215,0-0.9473,0.4229-0.9473,0.9463c0,0.5235,0.4258,0.9483,0.9473,0.9483
			c0.5234,0,0.9473-0.4248,0.9473-0.9483C54.9746,16.3262,54.5507,15.9033,54.0273,15.9033z M53.08,22.5313
			c0,0.1347,0.0313,0.2636,0.0821,0.3789c0.3183-0.4239,0.6191-0.8614,0.8886-1.3203c-0.0078,0-0.0156-0.0039-0.0234-0.0039
			C53.5058,21.586,53.08,22.0078,53.08,22.5313z M35.0879,4.5401c0.5234,0,0.9472-0.4239,0.9472-0.9473
			c0-0.375-0.2226-0.6934-0.539-0.8457c-0.4688,0.2617-0.9161,0.5566-1.3497,0.8701C34.1601,4.1279,34.5742,4.5401,35.0879,4.5401z
			 M38.4355,1.5332c-0.1816,0.0508-0.3594,0.1016-0.5371,0.1602c0.0098,0,0.0195,0.0058,0.0313,0.0058
			C38.1191,1.6992,38.2851,1.6289,38.4355,1.5332z M43.6113,1.6992c0.3574,0,0.6601-0.207,0.8203-0.5
			c-0.5605-0.0918-1.1309-0.1494-1.7129-0.1718C42.8398,1.4131,43.1855,1.6992,43.6113,1.6992z M40.7714,4.5401
			c0.5215,0,0.9473-0.4239,0.9473-0.9473s-0.4258-0.9463-0.9473-0.9463c-0.5234,0-0.9472,0.4229-0.9472,0.9463
			S40.248,4.5401,40.7714,4.5401z M46.4511,4.5401c0.5235,0,0.9473-0.4239,0.9473-0.9473s-0.4238-0.9463-0.9473-0.9463
			c-0.5214,0-0.9453,0.4229-0.9453,0.9463S45.9297,4.5401,46.4511,4.5401z M26.2793,7.3233
			c-0.2032-0.3194-0.4229-0.6241-0.6524-0.9248c-0.001,0.0127-0.0078,0.0234-0.0078,0.0351
			C25.6191,6.8555,25.9004,7.2002,26.2793,7.3233z M32.248,7.3809c0.5234,0,0.9473-0.4239,0.9473-0.9473
			c0-0.5224-0.4239-0.9473-0.9473-0.9473c-0.084,0-0.1582,0.0274-0.2363,0.0489c-0.2422,0.2695-0.4766,0.5468-0.6973,0.834
			c-0.0019,0.0224-0.0137,0.042-0.0137,0.0644C31.3007,6.957,31.7265,7.3809,32.248,7.3809z M26.5664,11.168
			c-0.5225,0-0.9473,0.4238-0.9473,0.9473c0,0.5234,0.4248,0.9472,0.9473,0.9472c0.5215,0,0.9472-0.4238,0.9472-0.9472
			C27.5136,11.5918,27.0879,11.168,26.5664,11.168z M32.248,13.0625c0.5234,0,0.9473-0.4238,0.9473-0.9472
			c0-0.5235-0.4239-0.9473-0.9473-0.9473c-0.5215,0-0.9473,0.4238-0.9473,0.9473C31.3007,12.6387,31.7265,13.0625,32.248,13.0625z
			 M30.3535,9.2744c0-0.3154-0.1641-0.58-0.4004-0.7529c-0.2715,0.5371-0.5078,1.0928-0.709,1.667
			c0.0547,0.0107,0.1055,0.0332,0.1621,0.0332C29.9297,10.2217,30.3535,9.7969,30.3535,9.2744z M35.0879,10.2217
			c0.5234,0,0.9472-0.4248,0.9472-0.9473c0-0.5224-0.4238-0.9463-0.9472-0.9463c-0.5215,0-0.9454,0.4239-0.9454,0.9463
			C34.1425,9.7969,34.5664,10.2217,35.0879,10.2217z M29.4062,15.9033c0.5235,0,0.9473-0.4248,0.9473-0.9472
			c0-0.5225-0.4238-0.9463-0.9473-0.9463c-0.5215,0-0.9453,0.4238-0.9453,0.9463C28.4609,15.4785,28.8847,15.9033,29.4062,15.9033z
			 M35.0879,15.9033c0.5234,0,0.9472-0.4248,0.9472-0.9472c0-0.5225-0.4238-0.9463-0.9472-0.9463
			c-0.5215,0-0.9454,0.4238-0.9454,0.9463C34.1425,15.4785,34.5664,15.9033,35.0879,15.9033z M37.9297,7.3809
			c0.5234,0,0.9472-0.4239,0.9472-0.9473c0-0.5224-0.4238-0.9473-0.9472-0.9473c-0.5215,0-0.9473,0.4249-0.9473,0.9473
			C36.9824,6.957,37.4082,7.3809,37.9297,7.3809z M43.6113,7.3809c0.5215,0,0.9473-0.4239,0.9473-0.9473
			c0-0.5224-0.4258-0.9473-0.9473-0.9473S42.664,5.9112,42.664,6.4336C42.664,6.957,43.0898,7.3809,43.6113,7.3809z
			 M37.9297,13.0625c0.5234,0,0.9472-0.4238,0.9472-0.9472c0-0.5235-0.4238-0.9473-0.9472-0.9473
			c-0.5215,0-0.9473,0.4238-0.9473,0.9473C36.9824,12.6387,37.4082,13.0625,37.9297,13.0625z M43.6113,13.0625
			c0.5215,0,0.9473-0.4238,0.9473-0.9472c0-0.5235-0.4258-0.9473-0.9473-0.9473s-0.9473,0.4238-0.9473,0.9473
			C42.664,12.6387,43.0898,13.0625,43.6113,13.0625z M40.7714,10.2217c0.5215,0,0.9473-0.4248,0.9473-0.9473
			c0-0.5224-0.4258-0.9463-0.9473-0.9463c-0.5234,0-0.9472,0.4239-0.9472,0.9463C39.8242,9.7969,40.248,10.2217,40.7714,10.2217z
			 M46.4511,10.2217c0.5235,0,0.9473-0.4248,0.9473-0.9473c0-0.5224-0.4238-0.9463-0.9473-0.9463
			c-0.5214,0-0.9453,0.4239-0.9453,0.9463C45.5058,9.7969,45.9297,10.2217,46.4511,10.2217z M40.7714,15.9033
			c0.5215,0,0.9473-0.4248,0.9473-0.9472c0-0.5225-0.4258-0.9463-0.9473-0.9463c-0.5234,0-0.9472,0.4238-0.9472,0.9463
			C39.8242,15.4785,40.248,15.9033,40.7714,15.9033z M46.4511,15.9033c0.5235,0,0.9473-0.4248,0.9473-0.9472
			c0-0.5225-0.4238-0.9463-0.9473-0.9463c-0.5214,0-0.9453,0.4238-0.9453,0.9463C45.5058,15.4785,45.9297,15.9033,46.4511,15.9033z
			 M49.2929,7.3809c0.5215,0,0.9473-0.4239,0.9473-0.9473c0-0.5224-0.4258-0.9473-0.9473-0.9473
			c-0.5234,0-0.9472,0.4249-0.9472,0.9473C48.3457,6.957,48.7695,7.3809,49.2929,7.3809z M49.2929,13.0625
			c0.5215,0,0.9473-0.4238,0.9473-0.9472c0-0.5235-0.4258-0.9473-0.9473-0.9473c-0.5234,0-0.9472,0.4238-0.9472,0.9473
			C48.3457,12.6387,48.7695,13.0625,49.2929,13.0625z M52.1328,10.2217c0.5234,0,0.9472-0.4248,0.9472-0.9473
			c0-0.5224-0.4238-0.9463-0.9472-0.9463c-0.5215,0-0.9473,0.4239-0.9473,0.9463C51.1855,9.7969,51.6113,10.2217,52.1328,10.2217z
			 M52.1328,15.9033c0.5234,0,0.9472-0.4248,0.9472-0.9472c0-0.5225-0.4238-0.9463-0.9472-0.9463
			c-0.5215,0-0.9473,0.4238-0.9473,0.9463C51.1855,15.4785,51.6113,15.9033,52.1328,15.9033z M26.5664,15.9033
			c-0.5225,0-0.9473,0.4229-0.9473,0.9463c0,0.5235,0.4248,0.9483,0.9473,0.9483c0.5215,0,0.9472-0.4248,0.9472-0.9483
			C27.5136,16.3262,27.0879,15.9033,26.5664,15.9033z M32.248,17.7979c0.5234,0,0.9473-0.4248,0.9473-0.9483
			c0-0.5234-0.4239-0.9463-0.9473-0.9463c-0.5215,0-0.9473,0.4229-0.9473,0.9463C31.3007,17.3731,31.7265,17.7979,32.248,17.7979z
			 M29.4062,20.6387c0.5235,0,0.9473-0.4258,0.9473-0.9473c0-0.5234-0.4238-0.9472-0.9473-0.9472
			c-0.5215,0-0.9453,0.4238-0.9453,0.9472C28.4609,20.2129,28.8847,20.6387,29.4062,20.6387z M35.0879,20.6387
			c0.5234,0,0.9472-0.4258,0.9472-0.9473c0-0.5234-0.4238-0.9472-0.9472-0.9472c-0.5215,0-0.9454,0.4238-0.9454,0.9472
			C34.1425,20.2129,34.5664,20.6387,35.0879,20.6387z M37.9297,17.7979c0.5234,0,0.9472-0.4248,0.9472-0.9483
			c0-0.5234-0.4238-0.9463-0.9472-0.9463c-0.5215,0-0.9473,0.4229-0.9473,0.9463C36.9824,17.3731,37.4082,17.7979,37.9297,17.7979z
			 M43.6113,17.7979c0.5215,0,0.9473-0.4248,0.9473-0.9483c0-0.5234-0.4258-0.9463-0.9473-0.9463s-0.9473,0.4229-0.9473,0.9463
			C42.664,17.3731,43.0898,17.7979,43.6113,17.7979z M40.7714,20.6387c0.5215,0,0.9473-0.4258,0.9473-0.9473
			c0-0.5234-0.4258-0.9472-0.9473-0.9472c-0.5234,0-0.9472,0.4238-0.9472,0.9472C39.8242,20.2129,40.248,20.6387,40.7714,20.6387z
			 M46.4511,20.6387c0.5235,0,0.9473-0.4258,0.9473-0.9473c0-0.5234-0.4238-0.9472-0.9473-0.9472
			c-0.5214,0-0.9453,0.4238-0.9453,0.9472C45.5058,20.2129,45.9297,20.6387,46.4511,20.6387z M49.2929,17.7979
			c0.5215,0,0.9473-0.4248,0.9473-0.9483c0-0.5234-0.4258-0.9463-0.9473-0.9463c-0.5234,0-0.9472,0.4229-0.9472,0.9463
			C48.3457,17.3731,48.7695,17.7979,49.2929,17.7979z M52.1328,20.6387c0.5234,0,0.9472-0.4258,0.9472-0.9473
			c0-0.5234-0.4238-0.9472-0.9472-0.9472c-0.5215,0-0.9473,0.4238-0.9473,0.9472C51.1855,20.2129,51.6113,20.6387,52.1328,20.6387z
			 M26.5664,21.586c-0.5225,0-0.9473,0.4218-0.9473,0.9453c0,0.5234,0.4248,0.9472,0.9473,0.9472
			c0.5215,0,0.9472-0.4238,0.9472-0.9472C27.5136,22.0078,27.0879,21.586,26.5664,21.586z M32.248,23.4785
			c0.5234,0,0.9473-0.4238,0.9473-0.9472c0-0.5235-0.4239-0.9453-0.9473-0.9453c-0.5215,0-0.9473,0.4218-0.9473,0.9453
			C31.3007,23.0547,31.7265,23.4785,32.248,23.4785z M26.5664,27.2656c-0.5225,0-0.9473,0.4248-0.9473,0.9473
			c0,0.5234,0.4248,0.9473,0.9473,0.9473c0.5215,0,0.9472-0.4238,0.9472-0.9473C27.5136,27.6905,27.0879,27.2656,26.5664,27.2656z
			 M32.248,29.1602c0.5234,0,0.9473-0.4238,0.9473-0.9473c0-0.5225-0.4239-0.9473-0.9473-0.9473
			c-0.5215,0-0.9473,0.4248-0.9473,0.9473C31.3007,28.7363,31.7265,29.1602,32.248,29.1602z M29.4062,26.3193
			c0.5235,0,0.9473-0.4248,0.9473-0.9463c0-0.5234-0.4238-0.9473-0.9473-0.9473c-0.5215,0-0.9453,0.4238-0.9453,0.9473
			C28.4609,25.8946,28.8847,26.3193,29.4062,26.3193z M35.0879,26.3193c0.5234,0,0.9472-0.4248,0.9472-0.9463
			c0-0.5234-0.4238-0.9473-0.9472-0.9473c-0.5215,0-0.9454,0.4238-0.9454,0.9473C34.1425,25.8946,34.5664,26.3193,35.0879,26.3193z
			 M29.4062,32.001c0.5235,0,0.9473-0.4238,0.9473-0.9473c0-0.5225-0.4238-0.9463-0.9473-0.9463
			c-0.5215,0-0.9453,0.4238-0.9453,0.9463C28.4609,31.5772,28.8847,32.001,29.4062,32.001z M35.0879,32.001
			c0.5234,0,0.9472-0.4238,0.9472-0.9473c0-0.5225-0.4238-0.9463-0.9472-0.9463c-0.5215,0-0.9454,0.4238-0.9454,0.9463
			C34.1425,31.5772,34.5664,32.001,35.0879,32.001z M37.9297,23.4785c0.5234,0,0.9472-0.4238,0.9472-0.9472
			c0-0.5235-0.4238-0.9453-0.9472-0.9453c-0.5215,0-0.9473,0.4218-0.9473,0.9453C36.9824,23.0547,37.4082,23.4785,37.9297,23.4785z
			 M43.6113,23.4785c0.5215,0,0.9473-0.4238,0.9473-0.9472c0-0.5235-0.4258-0.9453-0.9473-0.9453s-0.9473,0.4218-0.9473,0.9453
			C42.664,23.0547,43.0898,23.4785,43.6113,23.4785z M37.9297,29.1602c0.5234,0,0.9472-0.4238,0.9472-0.9473
			c0-0.5225-0.4238-0.9473-0.9472-0.9473c-0.5215,0-0.9473,0.4248-0.9473,0.9473C36.9824,28.7363,37.4082,29.1602,37.9297,29.1602z
			 M43.6113,29.1602c0.5215,0,0.9473-0.4238,0.9473-0.9473c0-0.5225-0.4258-0.9473-0.9473-0.9473s-0.9473,0.4248-0.9473,0.9473
			C42.664,28.7363,43.0898,29.1602,43.6113,29.1602z M40.7714,26.3193c0.5215,0,0.9473-0.4248,0.9473-0.9463
			c0-0.5234-0.4258-0.9473-0.9473-0.9473c-0.5234,0-0.9472,0.4238-0.9472,0.9473C39.8242,25.8946,40.248,26.3193,40.7714,26.3193z
			 M46.4511,26.3193c0.5235,0,0.9473-0.4248,0.9473-0.9463c0-0.5234-0.4238-0.9473-0.9473-0.9473
			c-0.5214,0-0.9453,0.4238-0.9453,0.9473C45.5058,25.8946,45.9297,26.3193,46.4511,26.3193z M40.7714,32.001
			c0.5215,0,0.9473-0.4238,0.9473-0.9473c0-0.5225-0.4258-0.9463-0.9473-0.9463c-0.5234,0-0.9472,0.4238-0.9472,0.9463
			C39.8242,31.5772,40.248,32.001,40.7714,32.001z M45.5683,30.7442l0.5723-0.5742C45.8711,30.2656,45.664,30.4736,45.5683,30.7442z
			 M49.2929,23.4785c0.5215,0,0.9473-0.4238,0.9473-0.9472c0-0.5235-0.4258-0.9453-0.9473-0.9453
			c-0.5234,0-0.9472,0.4218-0.9472,0.9453C48.3457,23.0547,48.7695,23.4785,49.2929,23.4785z M48.4082,27.9024l0.5742-0.5732
			C48.7129,27.4248,48.5039,27.6328,48.4082,27.9024z M51.25,25.0615l0.2949-0.2949l-0.0371-0.0049
			c0.0879-0.082,0.166-0.1738,0.2519-0.2578C51.5175,24.6084,51.3379,24.8125,51.25,25.0615z M26.5664,32.001
			c-0.5225,0-0.9473,0.4229-0.9473,0.9463c0,0.5234,0.4248,0.9473,0.9473,0.9473c0.5215,0,0.9472-0.4238,0.9472-0.9473
			C27.5136,32.4239,27.0879,32.001,26.5664,32.001z M32.248,33.8946c0.5234,0,0.9473-0.4238,0.9473-0.9473
			c0-0.5234-0.4239-0.9463-0.9473-0.9463c-0.5215,0-0.9473,0.4229-0.9473,0.9463C31.3007,33.4707,31.7265,33.8946,32.248,33.8946z
			 M29.4062,36.7354c0.5235,0,0.9473-0.4238,0.9473-0.9463c0-0.5234-0.4238-0.9473-0.9473-0.9473
			c-0.5215,0-0.9453,0.4238-0.9453,0.9473C28.4609,36.3115,28.8847,36.7354,29.4062,36.7354z M35.0879,36.7354
			c0.5234,0,0.9472-0.4238,0.9472-0.9463c0-0.5234-0.4238-0.9473-0.9472-0.9473c-0.5215,0-0.9454,0.4238-0.9454,0.9473
			C34.1425,36.3115,34.5664,36.7354,35.0879,36.7354z M37.9297,33.8946c0.5234,0,0.9472-0.4238,0.9472-0.9473
			c0-0.5234-0.4238-0.9463-0.9472-0.9463c-0.5215,0-0.9473,0.4229-0.9473,0.9463C36.9824,33.4707,37.4082,33.8946,37.9297,33.8946z
			 M42.664,32.9473c0,0.1973,0.0762,0.3711,0.1778,0.5225l1.291-1.291c-0.1524-0.1045-0.3242-0.1777-0.5215-0.1777
			C43.0898,32.001,42.664,32.4239,42.664,32.9473z M39.8242,35.7891c0,0.1963,0.0722,0.3691,0.1777,0.5215l1.2891-1.291
			c-0.1504-0.1035-0.3223-0.1777-0.5196-0.1777C40.248,34.8418,39.8242,35.2656,39.8242,35.7891z M26.5664,37.6826
			c-0.5225,0-0.9473,0.4229-0.9473,0.9463c0,0.5234,0.4248,0.9473,0.9473,0.9473c0.5215,0,0.9472-0.4238,0.9472-0.9473
			C27.5136,38.1055,27.0879,37.6826,26.5664,37.6826z M32.248,39.5762c0.5234,0,0.9473-0.4238,0.9473-0.9473
			c0-0.5234-0.4239-0.9463-0.9473-0.9463c-0.5215,0-0.9473,0.4229-0.9473,0.9463C31.3007,39.1524,31.7265,39.5762,32.248,39.5762z
			 M26.5664,43.3643c-0.5225,0-0.9473,0.4228-0.9473,0.9463c0,0.5224,0.4248,0.9472,0.9473,0.9472
			c0.5215,0,0.9472-0.4248,0.9472-0.9472C27.5136,43.7871,27.0879,43.3643,26.5664,43.3643z M31.3007,44.3106
			c0,0.1972,0.0762,0.3701,0.1778,0.5215l1.291-1.2911c-0.1523-0.1035-0.3242-0.1768-0.5215-0.1768
			C31.7265,43.3643,31.3007,43.7871,31.3007,44.3106z M29.4062,42.418c0.5235,0,0.9473-0.4258,0.9473-0.9473
			c0-0.5234-0.4238-0.9473-0.9473-0.9473c-0.5215,0-0.9453,0.4238-0.9453,0.9473C28.4609,41.9922,28.8847,42.418,29.4062,42.418z
			 M34.1425,41.4707c0,0.1973,0.0743,0.3691,0.1778,0.5215l1.289-1.291c-0.1504-0.1035-0.3242-0.1777-0.5214-0.1777
			C34.5664,40.5235,34.1425,40.9473,34.1425,41.4707z M28.4609,47.1524c0,0.1972,0.0742,0.3691,0.1768,0.5214l1.292-1.291
			c-0.1524-0.1035-0.3262-0.1777-0.5235-0.1777C28.8847,46.2051,28.4609,46.6289,28.4609,47.1524z M36.9824,38.6289
			c0,0.1973,0.0742,0.3711,0.1777,0.5215l1.291-1.29c-0.1523-0.1045-0.3242-0.1777-0.5214-0.1777
			C37.4082,37.6826,36.9824,38.1055,36.9824,38.6289z M7.6269,4.5401c0.5235,0,0.9473-0.4239,0.9473-0.9473
			c0-0.375-0.2227-0.6924-0.5391-0.8457c-0.4687,0.2637-0.916,0.5576-1.3496,0.8711C6.7002,4.1299,7.1152,4.5401,7.6269,4.5401z
			 M10.9716,1.5342c-0.1787,0.0498-0.3564,0.1006-0.5322,0.1592c0.0098,0.001,0.0195,0.0058,0.0293,0.0058
			C10.6572,1.6992,10.8232,1.6289,10.9716,1.5342z M16.1504,1.6992c0.3574,0,0.6591-0.207,0.8203-0.5
			c-0.5606-0.0918-1.1309-0.1504-1.7119-0.1718C15.3779,1.4131,15.7246,1.6992,16.1504,1.6992z M13.3086,2.6465
			c-0.5215,0-0.9463,0.4229-0.9463,0.9463s0.4248,0.9473,0.9463,0.9473c0.5234,0,0.9472-0.4239,0.9472-0.9473
			S13.832,2.6465,13.3086,2.6465z M18.9912,2.6465c-0.5225,0-0.9473,0.4229-0.9473,0.9463s0.4248,0.9473,0.9473,0.9473
			c0.5224,0,0.9472-0.4239,0.9472-0.9473S19.5136,2.6465,18.9912,2.6465z M4.7871,7.3809c0.5215,0,0.9472-0.4239,0.9472-0.9473
			c0-0.5224-0.4257-0.9473-0.9472-0.9473c-0.083,0-0.1563,0.0274-0.2344,0.0489C4.3086,5.8047,4.0752,6.082,3.8535,6.3711
			c-0.002,0.0215-0.0137,0.041-0.0137,0.0625C3.8398,6.957,4.2646,7.3809,4.7871,7.3809z M4.7871,11.168
			c-0.5225,0-0.9473,0.4238-0.9473,0.9473c0,0.5234,0.4248,0.9472,0.9473,0.9472c0.5215,0,0.9472-0.4238,0.9472-0.9472
			C5.7343,11.5918,5.3086,11.168,4.7871,11.168z M2.8935,9.2744c0-0.3154-0.164-0.5791-0.4004-0.7529
			c-0.2734,0.5371-0.5088,1.0938-0.709,1.667c0.0538,0.0107,0.1045,0.0332,0.1622,0.0332
			C2.4687,10.2217,2.8935,9.7969,2.8935,9.2744z M7.6269,8.3281c-0.5215,0-0.9453,0.4239-0.9453,0.9463
			c0,0.5225,0.4238,0.9473,0.9453,0.9473c0.5235,0,0.9473-0.4248,0.9473-0.9473C8.5742,8.752,8.1504,8.3281,7.6269,8.3281z
			 M1.9463,15.9033c0.5224,0,0.9472-0.4248,0.9472-0.9472c0-0.5225-0.4248-0.9463-0.9472-0.9463
			c-0.5059,0-0.9112,0.3994-0.9385,0.8984c0.0019,0.0449,0.0078,0.086,0.0078,0.1309C1.0595,15.5205,1.4531,15.9033,1.9463,15.9033z
			 M7.6269,14.0098c-0.5215,0-0.9453,0.4238-0.9453,0.9463c0,0.5224,0.4238,0.9472,0.9453,0.9472
			c0.5235,0,0.9473-0.4248,0.9473-0.9472C8.5742,14.4336,8.1504,14.0098,7.6269,14.0098z M10.4687,5.4863
			c-0.5224,0-0.9473,0.4249-0.9473,0.9473c0,0.5234,0.4249,0.9473,0.9473,0.9473c0.5225,0,0.9473-0.4239,0.9473-0.9473
			C11.416,5.9112,10.9912,5.4863,10.4687,5.4863z M16.1504,5.4863c-0.5225,0-0.9473,0.4249-0.9473,0.9473
			c0,0.5234,0.4248,0.9473,0.9473,0.9473c0.5224,0,0.9462-0.4239,0.9462-0.9473C17.0966,5.9112,16.6728,5.4863,16.1504,5.4863z
			 M10.4687,11.168c-0.5224,0-0.9473,0.4238-0.9473,0.9473c0,0.5234,0.4249,0.9472,0.9473,0.9472
			c0.5225,0,0.9473-0.4238,0.9473-0.9472C11.416,11.5918,10.9912,11.168,10.4687,11.168z M16.1504,11.168
			c-0.5225,0-0.9473,0.4238-0.9473,0.9473c0,0.5234,0.4248,0.9472,0.9473,0.9472c0.5224,0,0.9462-0.4238,0.9462-0.9472
			C17.0966,11.5918,16.6728,11.168,16.1504,11.168z M13.3086,8.3281c-0.5215,0-0.9463,0.4239-0.9463,0.9463
			c0,0.5225,0.4248,0.9473,0.9463,0.9473c0.5234,0,0.9472-0.4248,0.9472-0.9473C14.2558,8.752,13.832,8.3281,13.3086,8.3281z
			 M18.9912,8.3281c-0.5225,0-0.9473,0.4239-0.9473,0.9463c0,0.5225,0.4248,0.9473,0.9473,0.9473
			c0.5224,0,0.9472-0.4248,0.9472-0.9473C19.9384,8.752,19.5136,8.3281,18.9912,8.3281z M13.3086,14.0098
			c-0.5215,0-0.9463,0.4238-0.9463,0.9463c0,0.5224,0.4248,0.9472,0.9463,0.9472c0.5234,0,0.9472-0.4248,0.9472-0.9472
			C14.2558,14.4336,13.832,14.0098,13.3086,14.0098z M18.9912,14.0098c-0.5225,0-0.9473,0.4238-0.9473,0.9463
			c0,0.5224,0.4248,0.9472,0.9473,0.9472c0.5224,0,0.9472-0.4248,0.9472-0.9472C19.9384,14.4336,19.5136,14.0098,18.9912,14.0098z
			 M21.832,5.4863c-0.5234,0-0.9473,0.4249-0.9473,0.9473c0,0.5234,0.4239,0.9473,0.9473,0.9473
			c0.5225,0,0.9473-0.4239,0.9473-0.9473C22.7793,5.9112,22.3545,5.4863,21.832,5.4863z M21.832,11.168
			c-0.5234,0-0.9473,0.4238-0.9473,0.9473c0,0.5234,0.4239,0.9472,0.9473,0.9472c0.5225,0,0.9473-0.4238,0.9473-0.9472
			C22.7793,11.5918,22.3545,11.168,21.832,11.168z M24.6728,10.2217c0.5225,0,0.9463-0.4248,0.9463-0.9473
			c0-0.5224-0.4238-0.9463-0.9463-0.9463c-0.5224,0-0.9463,0.4239-0.9463,0.9463C23.7265,9.7969,24.1504,10.2217,24.6728,10.2217z
			 M24.6728,15.9033c0.5225,0,0.9463-0.4248,0.9463-0.9472c0-0.5225-0.4238-0.9463-0.9463-0.9463
			c-0.5224,0-0.9463,0.4238-0.9463,0.9463C23.7265,15.4785,24.1504,15.9033,24.6728,15.9033z M4.7871,15.9033
			c-0.5225,0-0.9473,0.4229-0.9473,0.9463c0,0.5235,0.4248,0.9483,0.9473,0.9483c0.5215,0,0.9472-0.4248,0.9472-0.9483
			C5.7343,16.3262,5.3086,15.9033,4.7871,15.9033z M2.8935,19.6914c0-0.5234-0.4248-0.9472-0.9472-0.9472
			c-0.1124,0-0.2159,0.0273-0.3155,0.0634c0.1914,0.6036,0.4239,1.1866,0.6924,1.75C2.6582,20.4112,2.8935,20.0791,2.8935,19.6914z
			 M7.6269,18.7442c-0.5215,0-0.9453,0.4238-0.9453,0.9472c0,0.5215,0.4238,0.9473,0.9453,0.9473
			c0.5235,0,0.9473-0.4258,0.9473-0.9473C8.5742,19.168,8.1504,18.7442,7.6269,18.7442z M10.4687,15.9033
			c-0.5224,0-0.9473,0.4229-0.9473,0.9463c0,0.5235,0.4249,0.9483,0.9473,0.9483c0.5225,0,0.9473-0.4248,0.9473-0.9483
			C11.416,16.3262,10.9912,15.9033,10.4687,15.9033z M16.1504,15.9033c-0.5225,0-0.9473,0.4229-0.9473,0.9463
			c0,0.5235,0.4248,0.9483,0.9473,0.9483c0.5224,0,0.9462-0.4248,0.9462-0.9483C17.0966,16.3262,16.6728,15.9033,16.1504,15.9033z
			 M13.3086,18.7442c-0.5215,0-0.9463,0.4238-0.9463,0.9472c0,0.5215,0.4248,0.9473,0.9463,0.9473
			c0.5234,0,0.9472-0.4258,0.9472-0.9473C14.2558,19.168,13.832,18.7442,13.3086,18.7442z M18.9912,18.7442
			c-0.5225,0-0.9473,0.4238-0.9473,0.9472c0,0.5215,0.4248,0.9473,0.9473,0.9473c0.5224,0,0.9472-0.4258,0.9472-0.9473
			C19.9384,19.168,19.5136,18.7442,18.9912,18.7442z M21.832,15.9033c-0.5234,0-0.9473,0.4229-0.9473,0.9463
			c0,0.5235,0.4239,0.9483,0.9473,0.9483c0.5225,0,0.9473-0.4248,0.9473-0.9483C22.7793,16.3262,22.3545,15.9033,21.832,15.9033z
			 M24.6728,20.6387c0.5225,0,0.9463-0.4258,0.9463-0.9473c0-0.5234-0.4238-0.9472-0.9463-0.9472
			c-0.5224,0-0.9463,0.4238-0.9463,0.9472C23.7265,20.2129,24.1504,20.6387,24.6728,20.6387z M4.7871,21.586
			c-0.5225,0-0.9473,0.4218-0.9473,0.9453c0,0.5234,0.4248,0.9472,0.9473,0.9472c0.5215,0,0.9472-0.4238,0.9472-0.9472
			C5.7343,22.0078,5.3086,21.586,4.7871,21.586z M7.6269,24.4258c-0.5215,0-0.9453,0.4238-0.9453,0.9473
			c0,0.5215,0.4238,0.9463,0.9453,0.9463c0.5235,0,0.9473-0.4248,0.9473-0.9463C8.5742,24.8496,8.1504,24.4258,7.6269,24.4258z
			 M10.4687,21.586c-0.5224,0-0.9473,0.4218-0.9473,0.9453c0,0.5234,0.4249,0.9472,0.9473,0.9472
			c0.5225,0,0.9473-0.4238,0.9473-0.9472C11.416,22.0078,10.9912,21.586,10.4687,21.586z M16.1504,21.586
			c-0.5225,0-0.9473,0.4218-0.9473,0.9453c0,0.5234,0.4248,0.9472,0.9473,0.9472c0.5224,0,0.9462-0.4238,0.9462-0.9472
			C17.0966,22.0078,16.6728,21.586,16.1504,21.586z M10.4687,27.2656c-0.5224,0-0.9473,0.4248-0.9473,0.9473
			c0,0.5234,0.4249,0.9473,0.9473,0.9473c0.5225,0,0.9473-0.4238,0.9473-0.9473C11.416,27.6905,10.9912,27.2656,10.4687,27.2656z
			 M16.1504,27.2656c-0.5225,0-0.9473,0.4248-0.9473,0.9473c0,0.5234,0.4248,0.9473,0.9473,0.9473
			c0.5224,0,0.9462-0.4238,0.9462-0.9473C17.0966,27.6905,16.6728,27.2656,16.1504,27.2656z M13.3086,24.4258
			c-0.5215,0-0.9463,0.4238-0.9463,0.9473c0,0.5215,0.4248,0.9463,0.9463,0.9463c0.5234,0,0.9472-0.4248,0.9472-0.9463
			C14.2558,24.8496,13.832,24.4258,13.3086,24.4258z M18.9912,24.4258c-0.5225,0-0.9473,0.4238-0.9473,0.9473
			c0,0.5215,0.4248,0.9463,0.9473,0.9463c0.5224,0,0.9472-0.4248,0.9472-0.9463C19.9384,24.8496,19.5136,24.4258,18.9912,24.4258z
			 M13.3086,30.1074c-0.5215,0-0.9463,0.4238-0.9463,0.9463c0,0.5234,0.4248,0.9473,0.9463,0.9473
			c0.5234,0,0.9472-0.4238,0.9472-0.9473C14.2558,30.5313,13.832,30.1074,13.3086,30.1074z M18.9912,30.1074
			c-0.5225,0-0.9473,0.4238-0.9473,0.9463c0,0.5234,0.4248,0.9473,0.9473,0.9473c0.5224,0,0.9472-0.4238,0.9472-0.9473
			C19.9384,30.5313,19.5136,30.1074,18.9912,30.1074z M21.832,21.586c-0.5234,0-0.9473,0.4218-0.9473,0.9453
			c0,0.5234,0.4239,0.9472,0.9473,0.9472c0.5225,0,0.9473-0.4238,0.9473-0.9472C22.7793,22.0078,22.3545,21.586,21.832,21.586z
			 M21.832,27.2656c-0.5234,0-0.9473,0.4248-0.9473,0.9473c0,0.5234,0.4239,0.9473,0.9473,0.9473
			c0.5225,0,0.9473-0.4238,0.9473-0.9473C22.7793,27.6905,22.3545,27.2656,21.832,27.2656z M24.6728,26.3193
			c0.5225,0,0.9463-0.4248,0.9463-0.9463c0-0.5234-0.4238-0.9473-0.9463-0.9473c-0.5224,0-0.9463,0.4238-0.9463,0.9473
			C23.7265,25.8946,24.1504,26.3193,24.6728,26.3193z M24.6728,32.001c0.5225,0,0.9463-0.4238,0.9463-0.9473
			c0-0.5225-0.4238-0.9463-0.9463-0.9463c-0.5224,0-0.9463,0.4238-0.9463,0.9463C23.7265,31.5772,24.1504,32.001,24.6728,32.001z
			 M16.1504,32.001c-0.5225,0-0.9473,0.4229-0.9473,0.9463c0,0.5234,0.4248,0.9473,0.9473,0.9473
			c0.5224,0,0.9462-0.4238,0.9462-0.9473C17.0966,32.4239,16.6728,32.001,16.1504,32.001z M18.9912,34.8418
			c-0.5225,0-0.9473,0.4238-0.9473,0.9473c0,0.5225,0.4248,0.9463,0.9473,0.9463c0.5224,0,0.9472-0.4238,0.9472-0.9463
			C19.9384,35.2656,19.5136,34.8418,18.9912,34.8418z M21.832,32.001c-0.5234,0-0.9473,0.4229-0.9473,0.9463
			c0,0.5234,0.4239,0.9473,0.9473,0.9473c0.5225,0,0.9473-0.4238,0.9473-0.9473C22.7793,32.4239,22.3545,32.001,21.832,32.001z
			 M24.6728,36.7354c0.5225,0,0.9463-0.4238,0.9463-0.9463c0-0.5234-0.4238-0.9473-0.9463-0.9473
			c-0.5224,0-0.9463,0.4238-0.9463,0.9473C23.7265,36.3115,24.1504,36.7354,24.6728,36.7354z M21.832,37.6826
			c-0.5234,0-0.9473,0.4229-0.9473,0.9463c0,0.5234,0.4239,0.9473,0.9473,0.9473c0.5225,0,0.9473-0.4238,0.9473-0.9473
			C22.7793,38.1055,22.3545,37.6826,21.832,37.6826z M24.6728,40.5235c-0.5224,0-0.9463,0.4238-0.9463,0.9473
			c0,0.5215,0.4239,0.9473,0.9463,0.9473c0.5225,0,0.9463-0.4258,0.9463-0.9473C25.6191,40.9473,25.1953,40.5235,24.6728,40.5235z"
			/>
		<g>
			<path fill="#43525B" d="M28.4609,48.8516c-0.2559,0-0.5117-0.0977-0.707-0.293L4.6621,25.4736
				c-0.0503-0.0498-0.0948-0.1055-0.1324-0.1631C1.6069,22.4981,0,18.749,0,14.7266C0,6.6065,6.6093,0,14.7334,0
				c6.2397,0,11.5859,3.9004,13.7275,9.3916C30.603,3.9004,35.9502,0,42.1914,0c8.1225,0,14.7304,6.6065,14.7304,14.7266
				c0,4.0117-1.6103,7.7607-4.54,10.584c-0.0366,0.0586-0.0796,0.1133-0.1299,0.1631l-23.084,23.085
				C28.9726,48.7539,28.7168,48.8516,28.4609,48.8516L28.4609,48.8516z M6.247,24.2305l22.2139,22.207l22.1968-22.1982
				c0.0449-0.0762,0.1011-0.1465,0.1684-0.209c2.6411-2.4619,4.0957-5.7656,4.0957-9.3037C54.9218,7.709,49.2109,2,42.1914,2
				c-7.0196,0-12.7305,5.709-12.7305,12.7266c0,0.5527-0.4478,1-1,1c-0.5522,0-1-0.4473-1-1C27.4609,7.709,21.7514,2,14.7334,2
				C7.7124,2,2,7.709,2,14.7266c0,3.5439,1.4467,6.8437,4.0742,9.292C6.1425,24.082,6.2002,24.1533,6.247,24.2305L6.247,24.2305z"/>
		</g>
	</g>
	<g>
		<g>
			<g>
				<path fill="#FFFFFF" d="M26.6855,23.3184c-1.1816,0-2.1445-0.9619-2.1445-2.1465v-3.5488c0-1.1817,0.9629-2.1436,2.1445-2.1436
					h3.5488c1.1856,0,2.1465,0.9619,2.1465,2.1436v3.5488c0,1.1846-0.9609,2.1465-2.1465,2.1465H26.6855z"/>
			</g>
			<path fill="#C0DFCF" d="M40.623,12.6836c-0.5859-0.4648-1.498-0.6455-1.9433-0.6797l-0.1856-0.0127l-0.1816,0.044
				c-2.3926,0.6035-4.7578,2.042-5.9532,2.8447l-0.9453,0.6357l0.6211,0.9532c0.0547,0.084,0.0996,0.1718,0.1406,0.2617
				l0.4629,0.999l3.125-1.2676l-3.3828,1.3731v1.8564l0.0449,0.0156l-0.0566,1.5411c-0.0019,0.1006-0.0117,0.1972-0.0293,0.2949
				l-0.123,0.7148l0.5898,0.4229c0.0645,0.0459,0.1367,0.0947,0.2051,0.1435c-0.0176-0.0136-0.0371-0.0234-0.0547-0.0371
				l-0.709-0.498l-0.6797,0.5429c-0.2734,0.2208-0.7285,0.4864-1.334,0.4864H28.789h-0.6562h-1.4473
				c-0.6035,0-1.0586-0.2637-1.332-0.4864l-0.6797-0.5458l-0.7109,0.5009c-0.0137,0.0098-0.0293,0.0186-0.043,0.0293
				c0.0654-0.0469,0.1367-0.0947,0.1973-0.1386l0.5898-0.42L24.58,21.543c-0.0156-0.0957-0.0253-0.1904-0.0273-0.2871
				l-0.0469-1.5528l0.0352-0.0117V17.835l-3.3858-1.3731l3.128,1.2676l0.4619-0.999c0.042-0.0899,0.0869-0.1777,0.1416-0.2617
				l0.6211-0.9532l-0.9434-0.6357c-1.1943-0.8027-3.5566-2.2412-5.957-2.8447l-0.1817-0.044l-0.1855,0.0127
				c-0.4453,0.0342-1.3574,0.2149-1.9424,0.6797c-0.6435,0.5068-1.3369,1.3945-1.3369,2.1445v7.6299
				c0,0.7461,0.6934,1.6319,1.3359,2.1397c0.5127,0.4053,1.3145,0.5498,1.8946,0.5498c0.2304,0,0.4453-0.0225,0.6367-0.0693
				c1.457-0.3438,2.6094-0.8232,3.5312-1.3095c-0.0214,0.0117-0.042,0.0244-0.0634,0.0361l-0.6573,0.3447l0.0586,0.7598
				c-0.2715,0.4375-0.998,2.1094-2.1582,4.9746l-0.9394,2.3232l3.2832-1.0947c0.04,0.1055,0.1972,0.5215,0.3769,1.0527
				l0.7588,2.2412l1.2998-1.9775c1.5752-2.3975,3.5176-6.0957,3.9951-7.6084l0.1475-0.4648l0.1465,0.4648
				c0.4805,1.5186,2.4219,5.2158,3.9941,7.6084l1.3008,1.9756l0.7598-2.2393c0.1816-0.5352,0.3379-0.9521,0.3769-1.0576
				l3.2832,1.0996l-0.9414-2.3232c-1.1582-2.8652-1.8847-4.5371-2.1347-4.9678l0.0586-0.7607l-0.6778-0.3506
				c-0.0293-0.0156-0.0566-0.0322-0.084-0.0478c0.9258,0.4902,2.0879,0.9765,3.5586,1.3232
				c0.1875,0.0449,0.3985,0.0654,0.625,0.0654c0.5821,0,1.3848-0.1426,1.8946-0.5449c0.6445-0.5078,1.3398-1.3965,1.3398-2.1426
				v-7.6299C41.9609,14.0801,41.2656,13.1934,40.623,12.6836z M23.1572,23.3174c-0.0147,0.0088-0.0313,0.0186-0.0479,0.0283
				C23.125,23.336,23.1425,23.3262,23.1572,23.3174z M33.7617,23.3154c0.0215,0.0127,0.0449,0.0264,0.0664,0.0391
				C33.8066,23.3418,33.7851,23.3291,33.7617,23.3154z"/>
		</g>
		<g>
			<g>
				<path fill="#43525B" d="M30.2343,24.3184h-3.5488c-1.7339,0-3.1445-1.4112-3.1445-3.1465v-3.5488
					c0-1.7334,1.4106-3.1436,3.1445-3.1436h3.5488c1.7349,0,3.1465,1.4102,3.1465,3.1436v3.5488
					C33.3808,22.9072,31.9692,24.3184,30.2343,24.3184L30.2343,24.3184z M26.6855,16.4795c-0.6308,0-1.1445,0.5127-1.1445,1.1436
					v3.5488c0,0.6318,0.5137,1.1465,1.1445,1.1465h3.5488c0.6324,0,1.1465-0.5147,1.1465-1.1465v-3.5488
					c0-0.6309-0.5141-1.1436-1.1465-1.1436H26.6855L26.6855,16.4795z"/>
			</g>
			<g>
				<path fill="#43525B" d="M18.1806,26.1455c-0.8486,0-1.8281-0.2285-2.5014-0.7598c-0.7925-0.625-1.7183-1.7666-1.7183-2.9278
					v-7.6299c0-1.165,0.9253-2.3066,1.7178-2.9306c0.7817-0.6192,1.9824-0.9024,2.7656-0.9024c0.0771,0,0.1543,0.0088,0.2295,0.0264
					c3.3218,0.7832,6.456,2.9971,7.3379,3.6572c0.4419,0.3311,0.5317,0.958,0.2007,1.4004
					c-0.3311,0.4414-0.9561,0.5332-1.3999,0.2012c-0.5635-0.4229-3.4942-2.54-6.4727-3.2813
					c-0.4023,0.0254-1.0708,0.1905-1.4219,0.4688c-0.5649,0.4443-0.957,1.0732-0.957,1.3603v7.6299
					c0,0.2852,0.3931,0.9131,0.957,1.3574c0.3316,0.2618,1.1778,0.4053,1.6807,0.2911c2.7598-0.6514,4.3467-1.8086,5.1997-2.4297
					l0.6255,0.7812l0.5522,0.835c-0.8979,0.6543-2.7656,2.0156-5.9199,2.7607C18.7978,26.1133,18.4985,26.1455,18.1806,26.1455
					L18.1806,26.1455z"/>
			</g>
			<g>
				<path fill="#43525B" d="M24.1049,18.6572c-0.125,0-0.2519-0.0234-0.375-0.0732l-2.9502-1.1953
					c-0.5117-0.207-0.7587-0.79-0.5512-1.3027c0.2075-0.5108,0.79-0.7569,1.3022-0.5508l2.9502,1.1953
					c0.5117,0.207,0.7588,0.79,0.5513,1.3027C24.8745,18.4219,24.5005,18.6572,24.1049,18.6572L24.1049,18.6572z"/>
			</g>
			<g>
				<path fill="#43525B" d="M21.1552,21.8213c-0.4184,0-0.8086-0.2646-0.9487-0.6836c-0.1748-0.5234,0.1079-1.0898,0.6318-1.2646
					l2.9502-0.9854c0.521-0.1767,1.0899,0.1074,1.2657,0.6318c0.1748,0.5235-0.1079,1.0899-0.6319,1.2647l-2.9502,0.9853
					C21.3672,21.8047,21.2602,21.8213,21.1552,21.8213L21.1552,21.8213z"/>
			</g>
			<g>
				<path fill="#43525B" d="M38.7407,26.1455c-0.3169,0-0.6152-0.0312-0.8726-0.0918c-3.1562-0.7451-5.0239-2.1054-5.9214-2.7597
					c-0.4462-0.3252-0.5629-0.9649-0.2378-1.4112c0.3257-0.4463,0.9336-0.5556,1.378-0.2334l0.0381,0.0284
					c0.8525,0.621,2.4389,1.7773,5.2002,2.4287c0.4995,0.1201,1.3471-0.0293,1.6782-0.2911
					c0.5639-0.4462,0.9575-1.0732,0.9575-1.3574v-7.6299c0-0.2851-0.3931-0.914-0.9575-1.3593
					c-0.3521-0.2793-1.02-0.4444-1.4224-0.4698c-2.9658,0.7383-5.9067,2.8584-6.4726,3.2813
					c-0.4434,0.332-1.0694,0.2402-1.3999-0.2022c-0.3306-0.4423-0.2398-1.0693,0.2026-1.3994
					c0.8848-0.6611,4.0283-2.8779,7.3359-3.6572c0.0752-0.0176,0.1524-0.0264,0.2295-0.0264c0.7837,0,1.9844,0.2832,2.7681,0.9053
					c0.7905,0.624,1.7163,1.7666,1.7163,2.9277v7.6299c0,1.1573-0.9253,2.2998-1.7173,2.9268
					C40.5693,25.917,39.5888,26.1455,38.7407,26.1455L38.7407,26.1455z"/>
			</g>
			<g>
				<path fill="#43525B" d="M32.8169,18.6572c-0.3951,0-0.7696-0.2353-0.9273-0.624c-0.2075-0.5117,0.0391-1.0947,0.5508-1.3027
					l2.9473-1.1953c0.5127-0.2061,1.0952,0.039,1.3027,0.5508c0.2075,0.5117-0.0391,1.0947-0.5508,1.3027l-2.9473,1.1953
					C33.0693,18.6338,32.9419,18.6572,32.8169,18.6572L32.8169,18.6572z"/>
			</g>
			<g>
				<path fill="#43525B" d="M35.7636,21.8213c-0.1049,0-0.2119-0.0166-0.3169-0.0518l-2.9472-0.9853
					c-0.524-0.1748-0.8067-0.7412-0.6314-1.2656c0.1748-0.5225,0.7437-0.8057,1.2652-0.6309l2.9472,0.9854
					c0.524,0.1748,0.8067,0.7412,0.6314,1.2656C36.5722,21.5567,36.1821,21.8213,35.7636,21.8213L35.7636,21.8213z"/>
			</g>
			<g>
				<path fill="#43525B" d="M34.0527,35.3653c-0.2754,0-0.5439-0.1143-0.7363-0.3232c-1.9131-2.082-5.8506-9.1689-5.8506-10.9014
					c0-0.5527,0.4477-1,1-1c0.5493,0,0.9951,0.4424,1,0.9913c0.0698,0.8808,2.3164,5.3046,4.1494,8.0156
					c0.2427-0.7422,0.4712-1.3467,0.4893-1.3936c0.1899-0.5,0.7421-0.7637,1.2514-0.5928l1.2261,0.4092
					c-0.8931-2.2139-1.9126-4.6602-2.2056-5.1279c-0.2925-0.4688-0.1504-1.085,0.3179-1.3779
					c0.4702-0.293,1.0864-0.1514,1.3779,0.3174c0.5987,0.957,2.7432,6.3769,3.167,7.4531c0.1421,0.3613,0.062,0.7725-0.2051,1.0547
					c-0.267,0.2812-0.6733,0.3848-1.0424,0.2598l-2.3413-0.7812c-0.2422,0.708-0.5201,1.5977-0.6104,2.1563
					c-0.061,0.3789-0.333,0.6885-0.6997,0.7988C34.2456,35.3516,34.1484,35.3653,34.0527,35.3653L34.0527,35.3653z"/>
			</g>
			<g>
				<path fill="#43525B" d="M22.8691,35.3653c-0.0957,0-0.1919-0.0137-0.2866-0.042c-0.3667-0.1094-0.6387-0.4189-0.7002-0.7969
					c-0.0913-0.5596-0.3696-1.4502-0.6118-2.1582l-2.3384,0.7812c-0.3682,0.125-0.7749,0.0215-1.042-0.2598
					c-0.2676-0.2822-0.3477-0.6934-0.2056-1.0547c0.4234-1.0762,2.566-6.4951,3.1651-7.4531
					c0.292-0.4688,0.9096-0.6114,1.3779-0.3174c0.4683,0.2929,0.6104,0.9091,0.3179,1.3779
					c-0.2925,0.4678-1.3116,2.9131-2.2041,5.1269l1.2236-0.4082c0.5107-0.1709,1.0615,0.0918,1.252,0.5938
					c0.0175,0.0469,0.2461,0.6514,0.4892,1.3936c1.835-2.7139,4.085-7.1475,4.1494-8.0206c0.0396-0.5371,0.5025-1.0234,1.0352-0.956
					c0.5376,0.0195,0.9643,0.4307,0.9643,0.9687c0,1.7334-3.937,8.8194-5.8496,10.9014
					C23.413,35.251,23.1445,35.3653,22.8691,35.3653L22.8691,35.3653z"/>
			</g>
		</g>
	</g>
</g>
</svg>
